<svg xmlns="http://www.w3.org/2000/svg" viewBox="14 12 40 48">
  <path fill="#020202" d="M47.4,14.9c1.6,0,3.1,0,4.5,0,.4,0,.8.3,1.2.4-.2.4-.2.9-.5,1.1-6.9,6.7-13.8,13.4-20.7,20.1,0,0,0,.1,0,.1,6.5,6.2,12.9,12.4,19.4,18.6.5.5,1.1,1,1.6,1.6.6.6.3,1.3-.5,1.3-4.1,0-8.2,0-12.2-.3-4.2-.4-9.5-5.4-9.4-11,.1-6.4-.2-12.8-.1-19.2,0-6.7,4.4-11.9,10.6-12.8,2-.3,4-.1,6.1-.1Z"/>
  <path fill="#020202" d="M27,26.6c-3.4,3.4-6.7,6.8-10,10.2.7.7,1.4,1.4,2.1,2.1,3.6,3.6,7.2,7.2,10.8,10.9,1.8,1.9,2.1,4.3.9,6.3-.8,1.4-2,2.1-3.6,2.1-3.1,0-6.3,0-9.4,0-1.5,0-1.8-.2-1.8-1.8,0-7.5,0-15,0-22.6,0-5.8,0-11.6,0-17.4,0-1.5.2-1.7,1.7-1.7,2.8,0,5.7,0,8.5,0,1.9,0,3.7.3,4.6,2.2,1,1.9.8,3.9-.4,5.7-1,1.4-2.2,2.6-3.4,3.9Z"/>
</svg>
